<?xml version="1.0" standalone="no"?>
<!DOCTYPE svg PUBLIC "-//W3C//DTD SVG 20010904//EN"
 "http://www.w3.org/TR/2001/REC-SVG-20010904/DTD/svg10.dtd">
<svg version="1.0" xmlns="http://www.w3.org/2000/svg"
 width="260.000000pt" height="260.000000pt" viewBox="0 0 260.000000 260.000000"
 preserveAspectRatio="xMidYMid meet">
<metadata>
Created by potrace 1.11, written by Peter Selinger 2001-2013
</metadata>
<g transform="translate(0.000000,260.000000) scale(0.100000,-0.100000)"
fill="#000000" stroke="none">
<path d="M341 2531 c-11 -7 -11 -9 0 -14 10 -4 10 -6 2 -6 -7 -1 -13 -6 -13
-13 0 -9 3 -9 12 0 16 16 33 15 20 -1 -6 -7 -7 -18 -3 -26 11 -18 19 -2 17 33
-2 32 -13 41 -35 27z"/>
<path d="M389 2531 c-1 -3 -2 -20 -3 -37 -1 -25 2 -31 14 -26 8 3 12 2 8 -2
-10 -12 -42 -14 -54 -4 -15 11 -56 20 -50 10 6 -11 -18 -29 -37 -26 -9 1 -15
-2 -11 -7 3 -5 9 -7 13 -5 4 3 8 -1 8 -8 0 -9 -7 -12 -16 -8 -14 5 -14 4 -1
-14 14 -18 14 -18 -4 -4 -18 14 -19 13 -14 -1 5 -14 1 -16 -28 -12 -22 3 -34
1 -34 -7 0 -9 -5 -9 -17 1 -15 11 -16 11 -6 -1 16 -18 17 -31 1 -27 -7 1 -12
-2 -13 -8 0 -5 -3 -15 -7 -21 -4 -6 -6 -20 -4 -31 3 -12 -1 -20 -10 -20 -17 0
-18 14 -1 20 6 2 -1 4 -17 4 -17 0 -23 -3 -16 -7 18 -11 1 -33 -19 -25 -9 3
-3 -5 13 -18 20 -16 26 -26 17 -31 -6 -4 -9 -11 -6 -16 3 -5 1 -11 -5 -15 -6
-4 -8 -12 -4 -18 3 -7 -1 -4 -9 5 -17 21 -30 12 -17 -12 8 -14 5 -17 -16 -14
-14 1 -28 5 -31 8 -8 8 18 37 27 31 5 -3 11 -1 14 4 12 18 -13 21 -34 4 -23
-20 -27 -71 -7 -92 10 -11 9 -13 -1 -7 -10 6 -12 -134 -12 -702 l1 -709 24 3
c31 3 31 -5 3 -42 -16 -20 -17 -25 -5 -15 20 16 55 77 38 67 -6 -4 -11 -2 -11
3 0 6 5 11 11 11 5 0 8 4 5 9 -8 13 22 7 35 -6 12 -12 42 -6 34 6 -2 4 2 8 10
8 12 0 12 -3 0 -20 -12 -17 -12 -23 1 -43 9 -13 16 -27 16 -31 0 -4 1 -10 3
-12 2 -2 2 9 -1 23 -4 24 -3 26 15 17 15 -8 19 -8 17 4 -1 8 -6 18 -11 22 -4
4 -5 3 -1 -4 4 -8 -1 -11 -14 -10 -22 1 -27 21 -8 33 7 4 8 3 4 -4 -4 -7 -3
-12 2 -12 17 0 22 13 9 29 -10 14 -10 14 5 3 14 -11 17 -10 21 5 4 17 5 17 6
1 1 -21 12 -23 29 -6 9 9 12 9 12 -1 0 -7 5 -9 12 -5 10 6 10 4 0 -8 -10 -13
-10 -17 2 -21 15 -6 16 -23 1 -47 -7 -13 -6 -13 7 -2 16 13 18 28 5 48 -11 19
5 25 20 6 8 -9 12 -12 9 -5 -10 19 12 25 23 6 6 -10 11 -13 11 -6 0 7 7 10 18
7 16 -5 16 -5 0 6 -19 11 -26 36 -8 25 6 -3 13 1 16 10 6 13 8 14 15 3 13 -19
11 -36 -2 -18 -9 12 -10 12 -5 -3 3 -10 6 -21 6 -25 0 -3 6 3 14 14 11 15 12
22 3 34 -10 13 -10 13 6 1 14 -11 17 -11 17 0 0 7 7 3 16 -9 8 -12 19 -20 24
-17 4 3 13 -2 20 -10 7 -8 17 -15 23 -15 7 0 7 4 -1 12 -7 7 -12 17 -12 22 0
6 5 3 11 -7 6 -9 15 -14 21 -11 7 5 8 2 4 -5 -5 -8 -2 -11 9 -9 10 2 20 -4 22
-12 4 -13 3 -13 -6 0 -8 11 -11 12 -11 2 0 -7 -5 -10 -12 -6 -6 4 -8 3 -4 -4
3 -6 -4 -18 -16 -26 -12 -9 -17 -16 -11 -16 6 0 16 7 23 15 9 11 16 12 26 4
19 -16 35 -1 28 27 -4 14 -2 24 5 24 6 0 8 -8 5 -17 -5 -15 -3 -15 10 1 9 11
16 15 16 10 0 -6 -3 -14 -7 -18 -16 -16 -12 -44 7 -49 11 -3 18 -2 15 3 -3 4
3 14 12 21 15 12 16 12 11 -3 -7 -17 2 -18 35 -3 10 4 16 13 14 19 -3 7 1 20
9 30 7 11 11 23 7 29 -3 6 -1 7 5 3 8 -5 9 -13 2 -25 -5 -10 -6 -22 -2 -26 4
-5 1 -5 -7 0 -10 5 -12 4 -7 -4 4 -6 12 -9 17 -6 5 4 9 1 9 -6 0 -8 5 -7 16 2
15 12 16 11 9 -11 -4 -14 -4 -22 0 -18 12 12 15 59 3 52 -7 -5 -8 -2 -3 6 6
10 11 10 20 -3 14 -19 30 -23 19 -5 -5 8 -2 9 10 5 11 -4 15 -3 11 4 -4 6 -13
8 -21 5 -8 -3 -14 -1 -14 4 0 20 47 10 59 -12 10 -21 11 -21 6 -2 -4 14 0 21
10 21 8 0 15 -4 15 -9 0 -4 5 -8 11 -8 8 0 8 5 -1 15 -7 8 -16 13 -19 10 -4
-2 -8 2 -8 10 0 11 5 10 25 -3 18 -12 25 -13 31 -3 10 16 22 16 32 -1 7 -10 9
-9 9 4 0 9 -4 20 -10 23 -5 3 -10 1 -10 -6 0 -7 -3 -9 -7 -6 -3 4 -12 2 -18
-3 -9 -7 -17 -5 -26 7 -13 16 -12 17 3 5 14 -11 18 -10 28 8 6 12 14 19 17 16
4 -3 13 0 22 7 14 10 14 10 3 -4 -10 -14 -10 -18 4 -23 10 -4 14 -12 9 -24 -5
-13 -4 -14 6 -5 9 9 9 15 0 26 -9 12 -6 21 14 46 15 17 24 35 21 40 -4 5 -2
12 3 15 16 10 5 -42 -13 -59 -20 -20 -20 -31 -2 -38 9 -4 13 2 12 16 -1 17 4
21 19 19 17 -2 17 -1 5 8 -9 6 -11 13 -5 17 6 5 10 18 10 31 0 12 4 22 8 21 5
0 15 8 23 18 13 17 14 17 8 -2 -6 -16 -4 -18 6 -8 15 14 43 6 33 -11 -3 -6 -2
-7 3 -3 5 5 10 13 10 18 1 5 3 12 4 17 2 4 4 14 4 22 1 8 7 14 14 13 6 -2 9 4
6 12 -4 10 0 15 12 15 16 0 16 2 4 10 -9 6 -17 5 -22 -3 -6 -9 -8 -9 -8 0 0 7
-7 10 -17 7 -14 -5 -15 -4 -4 4 8 5 24 9 36 8 12 -2 22 3 22 10 0 7 -5 10 -10
7 -6 -3 -7 -1 -3 5 4 7 2 12 -3 12 -6 0 -11 5 -11 10 0 6 11 3 25 -6 14 -9 22
-21 18 -27 -3 -6 -1 -7 6 -3 9 6 9 11 0 22 -9 11 -8 15 5 20 9 3 16 11 16 16
0 6 -6 5 -15 -2 -10 -9 -15 -9 -15 -1 0 18 4 26 13 23 5 -1 20 7 34 18 14 11
20 20 14 20 -7 0 -9 5 -6 10 4 6 11 7 17 4 7 -5 8 -2 2 7 -11 17 -13 109 -3
109 4 0 6 8 5 18 -2 9 2 20 8 24 8 6 8 8 -1 8 -7 0 -10 10 -7 25 2 14 0 25 -5
25 -5 0 -7 -13 -6 -30 2 -27 -13 -45 -16 -20 -3 20 -4 25 -12 38 -5 8 -4 11 3
10 7 -2 16 7 21 20 6 15 5 22 -4 22 -7 0 -18 9 -25 20 -12 21 -12 21 13 4 14
-9 28 -14 32 -10 3 3 0 6 -8 6 -11 0 -11 2 1 10 13 9 13 10 0 11 -8 1 -18 1
-22 0 -5 0 -8 6 -8 15 0 11 6 14 23 10 l22 -6 -22 11 c-13 7 -23 16 -23 21 0
5 4 7 8 4 4 -2 8 4 8 15 0 17 -2 18 -11 5 -10 -13 -13 -12 -24 2 -10 14 -11
15 -7 1 2 -9 -2 -16 -10 -16 -12 0 -11 5 2 25 15 23 15 24 -4 18 -21 -7 -36 7
-38 34 -4 55 -4 55 -14 40 -6 -9 -10 -10 -10 -3 0 32 31 19 36 -15 3 -19 13
-27 21 -18 4 4 1 11 -7 16 -8 6 -11 10 -6 10 6 0 5 5 -2 12 -9 9 -7 15 6 25
15 13 15 13 -4 4 -18 -9 -23 -6 -34 17 -8 15 -13 31 -11 35 1 5 -3 6 -9 2 -6
-3 -8 -11 -5 -16 10 -14 -2 -11 -20 7 -15 15 -15 18 1 35 10 11 14 22 11 26
-4 3 -7 1 -7 -5 0 -7 -7 -12 -15 -12 -8 0 -15 -4 -15 -10 0 -5 -5 -10 -11 -10
-5 0 -8 4 -4 9 3 5 1 12 -5 16 -5 3 -10 1 -10 -6 0 -7 -3 -9 -6 -6 -4 4 -1 14
7 23 12 15 11 16 -9 10 -13 -5 -22 -3 -22 3 0 6 -7 11 -16 11 -9 0 -12 -5 -8
-12 4 -7 3 -8 -5 -4 -6 4 -9 11 -7 15 8 13 -25 52 -37 44 -7 -3 -3 4 8 17 l20
23 -20 -11 c-20 -10 -55 4 -55 23 0 4 6 2 13 -4 8 -6 18 -7 22 -3 5 4 5 1 0
-7 -5 -9 -4 -12 3 -7 17 11 15 29 -3 22 -9 -3 -20 3 -27 14 -11 17 -13 17 -25
2 -7 -9 -12 -12 -11 -7 2 6 -1 10 -7 10 -5 0 -9 -5 -7 -12 1 -6 -2 -14 -8 -18
-6 -4 -7 1 -3 11 5 12 3 15 -6 9 -10 -6 -11 -2 -7 16 6 21 5 21 -4 6 -6 -9
-15 -15 -21 -12 -5 4 -9 1 -9 -4 0 -6 5 -11 12 -11 6 0 8 -3 4 -7 -4 -5 -14 1
-22 11 -9 13 -14 15 -14 6 0 -7 -3 -11 -6 -8 -3 4 -1 17 6 30 11 23 11 23 -10
-2 -20 -23 -23 -23 -34 -7 -7 9 -15 14 -18 11 -4 -3 -9 -1 -12 5 -4 6 2 8 14
6 11 -2 20 0 20 6 0 9 -28 8 -45 -3 -13 -8 -47 16 -37 27 4 5 1 5 -7 0 -12 -7
-10 -11 7 -26 12 -9 22 -23 22 -31 -1 -8 -4 -7 -11 5 -5 9 -15 17 -21 17 -6 0
-5 -7 3 -17 12 -16 12 -17 -2 -6 -12 10 -18 10 -29 0 -10 -9 -11 -9 -6 1 4 7
1 15 -8 18 -9 3 -13 11 -10 18 3 6 -1 2 -10 -8 -8 -10 -13 -23 -10 -27 3 -5
-2 -6 -11 -3 -10 4 -12 10 -6 18 5 6 5 20 0 31 l-9 20 2 -20 c2 -11 -5 -30
-13 -43 -14 -20 -17 -21 -23 -7 -9 23 -7 32 3 17 7 -11 9 -10 14 3 4 9 3 14
-2 10 -5 -3 -12 1 -14 7 -4 9 -6 9 -6 1 -1 -6 -17 -21 -36 -33 -19 -12 -33
-26 -30 -31 4 -5 -1 -6 -10 -3 -14 6 -13 8 5 21 11 8 20 20 20 26 0 8 -3 7 -9
-2 -5 -8 -14 -10 -21 -6 -9 5 -11 4 -6 -3 11 -18 -10 -14 -24 3 -11 13 -15 13
-21 3 -5 -7 -9 -17 -9 -23 0 -5 4 -3 10 5 5 8 11 12 14 10 2 -3 -3 -16 -13
-28 -14 -20 -17 -20 -17 -5 -1 10 -4 27 -8 38 -7 17 -6 18 4 5 10 -13 11 -13
7 2 -3 9 -1 19 6 22 7 3 3 4 -8 1 -23 -5 -53 10 -42 22 5 4 12 2 16 -6 7 -10
9 -9 14 3 3 8 1 18 -5 22 -7 5 -8 2 -3 -6 5 -9 4 -11 -4 -6 -16 10 -4 26 14
19 25 -9 16 6 -12 21 -16 8 -22 15 -14 16 11 0 11 3 0 17 -12 14 -12 16 0 8
11 -6 13 -4 8 8 -3 8 1 21 8 27 8 7 12 17 8 23 -3 5 -1 7 4 4 6 -4 13 0 17 8
3 8 1 17 -4 20 -6 4 -10 11 -10 16 0 6 7 3 16 -5 8 -9 20 -16 25 -16 5 0 12
-1 16 -2 3 -2 7 7 8 19 1 14 -3 19 -12 16 -7 -3 -10 -9 -7 -14 3 -5 -3 -6 -12
-2 -14 5 -12 8 10 20 18 10 31 11 45 4 15 -8 18 -7 17 7 0 9 4 17 11 17 26 0
35 22 17 40 -17 17 -17 17 3 11 15 -5 25 -1 33 11 8 13 10 14 9 3 -3 -28 1
-38 16 -44 12 -4 13 -2 6 12 -6 12 -5 23 5 37 15 19 15 19 10 -6 -3 -22 -1
-26 15 -22 10 3 19 1 19 -5 0 -5 7 -12 15 -16 8 -3 14 -2 14 2 -4 22 3 30 21
27 13 -2 18 0 14 7 -4 7 2 8 17 3 23 -7 23 -6 -3 14 -26 21 -32 50 -15 67 3 4
4 -6 1 -21 -5 -27 -4 -27 30 10 35 37 64 43 58 11 -2 -9 1 -16 7 -16 11 0 9
19 -3 39 -7 10 -3 12 15 6 17 -4 20 -3 10 3 -11 8 -11 10 0 14 9 3 8 6 -5 11
-10 4 -15 3 -11 -3 3 -6 1 -10 -4 -10 -11 0 -10 35 2 46 12 12 8 26 -5 18 -7
-4 -10 -4 -6 1 4 4 2 15 -5 24 -11 14 -10 14 6 1 17 -13 19 -12 17 5 -1 11 -2
27 -1 35 1 12 4 12 12 -2 7 -12 6 -24 -1 -39 -10 -18 -10 -19 8 -10 11 6 23 7
27 3 5 -4 1 4 -8 18 -9 13 -17 32 -17 42 0 12 -5 15 -17 11 -15 -6 -16 -5 -3
9 14 14 16 14 28 -6 12 -20 12 -20 10 -1 -2 11 -7 23 -13 27 -12 9 -405 8
-406 -1z m26 -11 c3 -5 1 -10 -4 -10 -6 0 -11 5 -11 10 0 6 2 10 4 10 3 0 8
-4 11 -10z m36 -3 c-6 -8 -9 -16 -6 -19 3 -3 -3 -11 -12 -19 -16 -13 -17 -12
-4 4 7 9 10 17 6 17 -4 0 -2 7 5 15 7 8 15 15 17 15 3 0 0 -6 -6 -13z m-31
-23 c0 -8 -19 -13 -24 -6 -3 5 1 9 9 9 8 0 15 -2 15 -3z m-70 -55 c0 -5 -5 -9
-11 -9 -5 0 -7 5 -3 11 4 8 -1 9 -17 4 -21 -7 -22 -6 -10 9 10 12 17 14 27 5
8 -6 14 -15 14 -20z m-148 -71 c-15 -15 -16 -32 -2 -23 6 3 10 1 10 -5 0 -7
-8 -9 -21 -5 -15 5 -19 4 -15 -4 5 -7 2 -10 -6 -9 -7 2 -12 -3 -10 -10 1 -8
-2 -11 -8 -7 -8 5 -8 11 -1 19 6 7 7 17 3 21 -4 5 -2 5 5 1 7 -4 17 2 23 14 6
11 16 20 22 20 9 0 9 -3 0 -12z m523 -30 c-9 -6 -19 -7 -22 -4 -4 3 -1 6 6 6
7 0 9 4 6 10 -4 6 1 7 11 3 15 -6 15 -7 -1 -15z m-37 -23 c-3 -3 -9 2 -12 12
-6 14 -5 15 5 6 7 -7 10 -15 7 -18z m-566 -59 c7 4 8 2 4 -4 -4 -6 -13 -9 -21
-6 -8 4 -12 11 -8 17 5 8 8 7 11 -1 2 -7 9 -9 14 -6z m522 -17 c3 1 6 -2 6 -6
0 -5 -4 -9 -10 -9 -5 -1 -15 -2 -21 -3 -5 0 -7 -6 -4 -12 4 -6 -2 -5 -14 3
-12 7 -17 14 -11 16 6 2 7 9 4 15 -5 8 -2 8 7 0 19 -18 29 -16 23 5 -4 13 -3
14 4 4 5 -8 12 -13 16 -13z m-200 -51 c-7 -23 -6 -23 15 -4 11 11 21 16 21 13
0 -4 0 -9 0 -12 0 -3 -2 -4 -4 -2 -2 1 -13 -6 -23 -16 -25 -22 -35 -12 -21 19
14 30 22 31 12 2z m-369 -88 c3 -6 -1 -7 -9 -4 -18 7 -21 14 -7 14 6 0 13 -4
16 -10z m238 -145 c-3 -9 -8 -14 -10 -11 -3 3 -2 9 2 15 9 16 15 13 8 -4z m-8
-63 c-3 -3 -11 0 -18 7 -9 10 -8 11 6 5 10 -3 15 -9 12 -12z m400 -31 c-6 -5
-25 10 -25 20 0 5 6 4 14 -3 8 -7 12 -15 11 -17z m-375 -1 c0 -5 -2 -10 -4
-10 -3 0 -8 5 -11 10 -3 6 -1 10 4 10 6 0 11 -4 11 -10z m160 0 c0 -5 -2 -10
-4 -10 -3 0 -8 5 -11 10 -3 6 -1 10 4 10 6 0 11 -4 11 -10z m-87 -20 c3 -11 1
-18 -4 -14 -5 3 -9 12 -9 20 0 20 7 17 13 -6z m477 -4 c0 -2 -7 -7 -16 -10 -8
-3 -12 -2 -9 4 6 10 25 14 25 6z m242 -194 c3 8 6 8 10 -3 3 -8 -1 -24 -9 -34
-9 -12 -13 -14 -10 -5 2 8 -3 24 -12 35 -15 18 -15 19 1 7 13 -10 17 -10 20 0z
m-562 -37 c-7 -9 -15 -13 -18 -10 -3 3 -15 -3 -26 -12 -21 -18 -21 -18 -2 4
10 13 23 20 27 17 5 -3 12 2 15 11 4 9 9 14 12 11 3 -3 -1 -12 -8 -21z m106 4
c3 -31 6 -33 14 -14 8 18 9 18 9 2 1 -12 5 -16 14 -11 9 6 9 5 0 -8 -7 -8 -9
-19 -5 -23 4 -5 1 -5 -6 -1 -7 4 -9 12 -6 18 4 7 2 8 -5 4 -6 -4 -9 -12 -6
-17 4 -5 1 -9 -5 -9 -7 0 -9 7 -6 16 3 8 2 12 -3 9 -5 -3 -12 -1 -15 4 -4 5
-2 12 4 16 5 3 10 11 10 17 0 6 -6 6 -15 -2 -9 -7 -18 -10 -22 -6 -3 3 -1 6 6
6 7 0 10 4 7 9 -4 5 2 8 11 7 10 -2 19 -9 19 -17z m-35 -28 c18 -19 27 -38 24
-51 -2 -11 0 -18 6 -15 5 4 7 10 4 15 -10 16 20 17 33 1 11 -15 12 -15 6 0 -7
21 25 54 38 41 15 -15 -1 -34 -21 -27 -12 5 -13 3 -5 -5 16 -16 58 5 47 23 -4
7 0 7 10 -2 17 -13 24 -26 10 -18 -5 3 -14 -1 -21 -9 -11 -12 -10 -14 5 -11
10 1 24 7 32 11 9 6 12 5 7 -2 -3 -6 -2 -13 4 -17 5 -3 10 -2 10 3 0 5 7 9 15
9 21 0 19 -17 -2 -18 -10 -1 -22 -1 -26 0 -5 1 -6 -3 -2 -9 3 -5 2 -10 -2 -10
-5 0 -9 -9 -9 -19 0 -11 4 -17 8 -15 4 3 8 11 8 18 0 8 9 16 21 19 13 3 19 1
16 -6 -3 -7 -9 -11 -14 -10 -5 1 -10 -4 -10 -11 0 -9 6 -10 23 -2 12 6 21 13
19 17 -2 3 2 6 10 6 10 0 12 -4 5 -12 -7 -9 -2 -20 17 -39 14 -15 19 -24 11
-21 -19 8 -30 -7 -22 -30 6 -14 10 -13 32 7 l25 23 -23 -32 c-14 -20 -29 -30
-39 -26 -13 4 -13 3 1 -7 9 -6 15 -17 12 -25 -4 -8 -1 -15 4 -15 6 0 9 9 7 19
-3 14 1 18 12 14 11 -4 12 -8 3 -13 -9 -6 -7 -11 6 -19 11 -6 14 -11 8 -11 -6
0 -10 -15 -10 -32 1 -24 -3 -33 -14 -32 -9 1 -17 -8 -17 -18 -2 -15 1 -17 12
-8 9 8 15 8 20 0 4 -6 1 -9 -6 -8 -6 2 -14 -3 -16 -10 -3 -6 1 -10 9 -9 7 2
10 2 5 0 -4 -3 -4 -10 0 -16 3 -7 -5 -2 -19 11 -18 16 -25 18 -25 8 0 -8 4
-13 9 -10 4 3 6 -5 4 -18 -3 -13 -5 -25 -5 -28 -1 -3 -6 2 -12 10 -9 13 -10
13 -6 0 2 -8 11 -14 18 -12 11 3 11 1 2 -9 -10 -10 -16 -9 -30 1 -10 7 -5 0
12 -15 25 -24 26 -27 7 -21 -16 6 -22 3 -22 -8 0 -9 -5 -16 -10 -16 -7 0 -7 6
0 19 7 14 7 22 -2 27 -7 4 -8 3 -4 -4 4 -7 2 -12 -3 -12 -6 0 -11 -6 -11 -14
0 -8 -5 -18 -12 -22 -7 -4 -8 -3 -4 4 4 7 1 12 -6 12 -10 0 -9 3 2 11 13 9 13
10 0 6 -10 -2 -14 -14 -12 -35 2 -18 -1 -32 -7 -32 -5 0 -8 9 -6 20 2 11 0 22
-4 24 -4 3 -7 -12 -6 -33 2 -36 0 -38 -16 -28 -12 8 -15 15 -9 21 13 13 13 26
0 26 -6 0 -9 -6 -8 -12 2 -7 -3 -12 -10 -10 -8 1 -11 -2 -8 -7 4 -5 0 -11 -6
-14 -10 -3 -10 -8 1 -18 12 -12 13 -12 6 0 -6 10 -4 12 5 6 9 -6 11 -4 5 6 -8
12 -6 12 8 0 18 -15 23 -26 7 -16 -5 3 -10 1 -10 -5 0 -7 -6 -10 -14 -7 -7 3
-19 0 -25 -6 -13 -13 -43 -19 -35 -6 3 5 -2 9 -11 9 -9 0 -14 -4 -10 -9 3 -6
-4 -8 -16 -6 -13 3 -29 -1 -36 -7 -8 -6 -13 -7 -12 -2 4 21 -2 35 -11 29 -5
-3 -10 -2 -10 3 0 18 13 21 27 6 14 -14 39 -13 77 2 13 5 17 4 12 -4 -3 -6 -2
-14 4 -17 6 -4 9 -1 8 7 -2 7 3 12 11 10 11 -2 12 0 4 10 -6 7 -9 21 -8 30 2
10 -1 20 -5 23 -5 3 -7 -4 -5 -15 5 -25 -26 -45 -44 -27 -10 9 -11 8 -5 -8 7
-18 6 -19 -11 -5 -11 9 -16 10 -11 3 4 -7 3 -13 -3 -13 -5 0 -14 8 -20 17 -7
13 -12 14 -23 6 -17 -14 -71 -25 -63 -13 3 5 0 12 -5 15 -8 5 -6 13 4 24 14
15 14 18 1 18 -8 0 -12 -4 -9 -9 8 -13 -20 -9 -35 5 -11 10 -13 9 -8 -6 4 -11
3 -16 -3 -12 -6 4 -9 14 -8 22 2 9 -3 18 -11 21 -9 3 -11 0 -7 -9 4 -8 -1 -4
-12 8 -11 12 -23 19 -27 15 -4 -4 -3 3 4 15 13 26 15 44 2 24 -5 -8 -17 -16
-26 -17 -12 -2 -14 1 -5 11 8 10 4 18 -17 34 -21 17 -22 19 -5 11 16 -8 22 -8
22 0 0 6 6 8 13 4 9 -6 9 -5 0 7 -6 8 -13 23 -15 34 -1 11 -10 27 -18 35 -13
12 -13 13 -1 5 11 -8 13 -7 7 3 -4 7 -2 19 4 27 7 8 9 15 5 15 -5 0 0 10 11
22 10 12 14 19 9 15 -6 -3 -17 -2 -24 2 -16 10 -5 51 12 47 7 -1 9 -1 5 1 -5
3 -8 9 -8 14 0 6 4 7 10 4 6 -4 7 1 3 11 -5 13 -3 15 8 9 11 -7 12 -6 2 7 -16
19 -5 32 14 16 11 -9 12 -7 7 7 -5 13 -4 16 4 11 7 -4 12 -2 12 4 0 7 -6 10
-14 7 -9 -4 -13 3 -13 20 0 21 1 23 9 10 5 -10 15 -14 25 -10 10 4 14 2 10 -4
-3 -5 0 -10 8 -10 12 0 12 3 2 16 -10 12 -9 14 3 9 11 -4 16 1 18 19 1 16 -2
22 -10 17 -7 -4 -8 -3 -4 4 5 9 12 8 26 0 13 -8 16 -16 10 -22 -13 -13 -13
-26 1 -26 5 0 8 4 4 9 -3 5 -1 12 5 16 6 4 8 11 4 16 -3 6 5 8 20 5 16 -3 24
-1 20 5 -3 6 4 8 18 4 14 -3 32 2 45 12 l23 18 -30 0 c-22 1 -27 -2 -18 -12 8
-10 6 -13 -5 -13 -9 0 -19 5 -22 11 -5 6 -11 4 -19 -7 -10 -13 -15 -14 -21 -4
-5 8 -4 11 2 7 6 -4 14 0 17 9 4 9 9 14 13 10 3 -3 14 1 24 10 11 10 19 12 24
5 3 -6 11 -11 17 -11 7 0 6 6 -2 15 -23 27 2 16 31 -14z m-141 -21 c0 -5 -5
-10 -11 -10 -5 0 -7 5 -4 10 3 6 8 10 11 10 2 0 4 -4 4 -10z m-52 -39 c11 -7
10 -9 -3 -14 -11 -5 -14 -3 -9 5 5 8 2 9 -10 5 -10 -4 -15 -3 -11 3 7 12 16
12 33 1z m-72 -41 c1 -16 -3 -30 -8 -30 -5 0 -8 -7 -6 -16 2 -10 -3 -18 -10
-20 -7 -1 -8 0 -2 3 5 2 7 9 4 14 -3 6 -11 6 -18 2 -7 -4 -3 0 9 11 11 10 21
27 21 37 3 40 9 40 10 -1z m545 -3 c-6 -8 -7 -18 -3 -22 4 -5 1 -5 -6 -1 -10
6 -10 11 -1 22 6 8 14 14 16 14 3 0 0 -6 -6 -13z m306 -49 c-3 -7 -5 -2 -5 12
0 14 2 19 5 13 2 -7 2 -19 0 -25z m-885 -35 c-6 -2 -9 -10 -6 -15 4 -7 2 -8
-5 -4 -13 9 -5 26 12 25 9 0 8 -2 -1 -6z m-6 -68 c4 -8 11 -12 17 -8 6 4 7 1
1 -8 -5 -8 -9 -18 -9 -24 0 -5 -9 -11 -20 -12 l-20 -3 20 9 c14 7 15 10 5 10
-13 1 -13 2 0 11 11 7 11 10 2 10 -7 0 -11 4 -8 9 4 5 0 12 -6 14 -10 4 -10 6
0 6 7 1 15 -6 18 -14z m925 -82 c-5 -10 -9 -22 -9 -28 0 -5 -6 -11 -14 -13 -8
-2 -9 -1 -3 5 6 4 10 15 10 23 0 8 4 18 10 22 15 11 17 10 6 -9z m-920 -38 c1
-5 5 -16 11 -22 15 -18 0 -16 -18 2 -12 12 -12 15 -2 16 7 0 4 5 -7 10 -17 7
-17 8 -2 6 10 -1 18 -6 18 -12z m916 -37 c1 -10 -3 -18 -9 -18 -6 0 -8 3 -5 7
4 3 2 11 -3 18 -7 8 -6 12 3 12 7 0 14 -9 14 -19z m-340 -38 c1 -10 -1 -21 -5
-24 -4 -2 -7 9 -7 25 -1 31 7 30 12 -1z m333 -15 c-5 -6 -8 -14 -5 -17 12 -12
-21 -27 -35 -16 -12 8 -12 9 3 4 9 -3 17 -1 17 3 0 5 3 18 6 28 5 17 5 17 -9
1 -8 -10 -18 -18 -22 -18 -5 0 0 9 9 19 20 22 54 18 36 -4z m-855 -55 c3 -5 1
-10 -4 -10 -6 0 -11 5 -11 10 0 6 2 10 4 10 3 0 8 -4 11 -10z m443 -24 c-7 -8
-15 -12 -17 -11 -5 6 10 25 20 25 5 0 4 -6 -3 -14z m353 -3 c13 -16 12 -17 -3
-4 -10 7 -18 15 -18 17 0 8 8 3 21 -13z m-708 -26 c3 -8 -1 -14 -8 -14 -7 0
-11 6 -8 14 3 7 6 13 8 13 2 0 5 -6 8 -13z m672 -7 c3 -5 1 -10 -4 -10 -6 0
-11 5 -11 10 0 6 2 10 4 10 3 0 8 -4 11 -10z m-635 -40 c0 -5 -2 -10 -4 -10
-3 0 -8 5 -11 10 -3 6 -1 10 4 10 6 0 11 -4 11 -10z m35 0 c3 -6 -1 -7 -9 -4
-18 7 -21 14 -7 14 6 0 13 -4 16 -10z m595 -19 c0 -6 -4 -12 -10 -16 -5 -3 -7
-12 -4 -19 3 -8 0 -17 -7 -22 -9 -5 -10 -2 -6 9 4 10 -1 21 -11 27 -16 11 -16
11 0 6 20 -6 34 10 16 17 -8 3 -6 6 5 6 9 1 17 -3 17 -8z m-855 -201 c-6 -10
7 -14 31 -11 7 1 15 -6 18 -15 5 -13 3 -14 -6 -6 -7 6 -17 11 -23 11 -5 1 -18
4 -29 7 -15 5 -16 8 -5 15 18 11 22 11 14 -1z m180 0 c3 -5 1 -10 -4 -10 -6 0
-11 5 -11 10 0 6 2 10 4 10 3 0 8 -4 11 -10z m340 0 c-3 -5 -12 -10 -18 -10
-7 0 -6 4 3 10 19 12 23 12 15 0z m-236 -13 c8 -10 7 -14 -2 -14 -8 0 -14 6
-14 14 0 7 1 13 2 13 2 0 8 -6 14 -13z m268 -9 c-3 -8 -6 -5 -6 6 -1 11 2 17
5 13 3 -3 4 -12 1 -19z m-802 -17 c-6 -5 -25 10 -25 20 0 5 6 4 14 -3 8 -7 12
-15 11 -17z m579 21 c3 -5 -1 -9 -9 -9 -8 0 -12 4 -9 9 3 4 7 8 9 8 2 0 6 -4
9 -8z m75 -29 c-6 -7 -8 -16 -5 -21 3 -6 -2 -16 -11 -23 -12 -10 -14 -10 -9
-1 4 6 2 12 -3 12 -6 0 -11 8 -11 18 0 15 2 15 11 2 9 -12 10 -11 6 5 -3 15 1
21 14 21 13 0 15 -4 8 -13z m58 -3 c-1 -22 -17 -28 -17 -7 0 12 9 27 16 27 2
0 2 -9 1 -20z m-119 -37 c-18 -22 -28 -14 -16 12 8 18 14 22 19 13 4 -7 3 -18
-3 -25z m-58 5 c0 -4 -4 -8 -9 -8 -6 0 -12 4 -15 8 -3 5 1 9 9 9 8 0 15 -4 15
-9z"/>
<path d="M725 1560 c-3 -5 -1 -10 4 -10 6 0 11 5 11 10 0 6 -2 10 -4 10 -3 0
-8 -4 -11 -10z"/>
<path d="M594 1535 c-4 -8 -11 -12 -17 -8 -6 4 -7 1 -2 -7 6 -10 11 -9 21 4 7
11 18 15 25 10 8 -4 10 -3 5 4 -10 17 -26 15 -32 -3z"/>
<path d="M781 1511 c-8 -5 -20 -7 -27 -4 -6 2 -15 0 -18 -5 -8 -13 44 -6 57 7
13 13 7 14 -12 2z"/>
<path d="M867 1440 c10 -11 19 -20 21 -20 1 0 -2 9 -8 20 -6 11 -15 20 -20 20
-6 0 -2 -9 7 -20z"/>
<path d="M909 1305 c-1 -3 -2 -9 -3 -14 0 -5 -4 -13 -8 -17 -12 -11 -10 -21 5
-27 9 -3 13 6 13 29 0 30 -4 44 -7 29z"/>
<path d="M875 1290 c3 -5 8 -10 11 -10 2 0 4 5 4 10 0 6 -5 10 -11 10 -5 0 -7
-4 -4 -10z"/>
<path d="M360 1275 c-7 -9 -11 -17 -9 -20 3 -2 10 5 17 15 14 24 10 26 -8 5z"/>
<path d="M355 1140 c3 -5 8 -10 11 -10 2 0 4 5 4 10 0 6 -5 10 -11 10 -5 0 -7
-4 -4 -10z"/>
<path d="M400 1100 c-11 -7 -11 -10 -2 -10 8 0 10 -5 6 -12 -4 -7 -3 -9 1 -5
7 6 17 37 12 37 -1 0 -9 -5 -17 -10z"/>
<path d="M431 1095 c0 -5 7 -20 17 -32 16 -20 18 -20 32 -5 13 14 12 15 -2 10
-22 -9 -30 2 -15 21 10 14 10 14 -5 3 -13 -10 -17 -10 -21 0 -3 7 -6 9 -6 3z"/>
<path d="M530 1036 c4 -4 16 -4 26 2 16 9 14 10 -8 9 -15 -1 -23 -6 -18 -11z"/>
<path d="M510 1021 c0 -7 -5 -9 -12 -5 -9 5 -8 2 1 -10 10 -12 17 -14 25 -6 7
7 6 14 -2 22 -9 9 -12 9 -12 -1z"/>
<path d="M229 2443 c0 -5 -3 -19 -5 -33 -4 -23 -4 -24 10 -5 7 10 12 25 9 32
-6 14 -13 17 -14 6z"/>
<path d="M186 2422 c-3 -5 1 -9 9 -9 8 0 15 4 15 9 0 4 -4 8 -9 8 -6 0 -12 -4
-15 -8z"/>
<path d="M790 2410 c-9 -6 -10 -10 -3 -10 6 0 15 5 18 10 8 12 4 12 -15 0z"/>
<path d="M762 2384 c4 -4 19 -8 34 -10 34 -3 21 9 -14 14 -15 2 -23 0 -20 -4z"/>
<path d="M113 2343 c4 -3 1 -13 -6 -22 -11 -14 -10 -14 6 -2 20 15 22 31 5 31
-6 0 -8 -3 -5 -7z"/>
<path d="M714 2303 c-10 -10 -26 -27 -34 -38 -11 -16 -11 -17 0 -7 21 18 35
15 19 -5 -13 -15 -12 -15 9 -2 12 8 18 15 12 17 -5 2 -10 8 -10 14 0 6 6 8 13
5 8 -3 13 3 13 14 0 23 1 23 -22 2z"/>
<path d="M0 2236 c0 -2 7 -7 16 -10 8 -3 12 -2 9 4 -6 10 -25 14 -25 6z"/>
<path d="M56 2233 c-7 -7 17 -43 28 -43 5 0 6 3 3 7 -4 3 -2 12 4 20 6 7 10
13 8 14 -30 6 -38 6 -43 2z m34 -9 c0 -8 -19 -13 -24 -6 -3 5 1 9 9 9 8 0 15
-2 15 -3z"/>
<path d="M570 2179 c0 -5 5 -7 10 -4 6 3 10 8 10 11 0 2 -4 4 -10 4 -5 0 -10
-5 -10 -11z"/>
<path d="M25 2160 c4 -6 11 -8 16 -5 14 9 11 15 -7 15 -8 0 -12 -5 -9 -10z"/>
<path d="M430 2121 c0 -6 4 -13 10 -16 6 -3 7 1 4 9 -7 18 -14 21 -14 7z"/>
<path d="M356 2063 c-17 -23 -32 -93 -18 -78 3 3 12 -1 21 -7 9 -7 13 -8 9 -4
-4 5 -2 16 5 25 10 14 10 14 -5 3 -11 -9 -18 -10 -23 -2 -3 5 -1 10 6 10 8 0
8 4 1 13 -16 19 30 61 48 44 12 -10 12 -9 1 6 -18 22 -22 21 -45 -10z"/>
<path d="M1853 1935 c0 -8 4 -12 9 -9 5 3 6 10 3 15 -9 13 -12 11 -12 -6z"/>
<path d="M1916 1938 c3 -5 10 -6 15 -3 13 9 11 12 -6 12 -8 0 -12 -4 -9 -9z"/>
<path d="M1956 1924 c3 -19 1 -24 -8 -18 -19 12 -37 13 -44 3 -3 -6 -12 -5
-22 3 -15 12 -16 11 -3 -4 8 -11 9 -18 3 -18 -6 0 -14 4 -17 10 -7 11 -45 -9
-45 -24 0 -5 8 -2 18 7 14 13 19 13 29 2 10 -11 9 -14 -5 -14 -9 0 -39 -2 -65
-4 -36 -3 -50 -1 -54 10 -5 12 -7 12 -14 1 -7 -11 -11 -10 -19 2 -7 12 -9 10
-7 -7 1 -17 5 -20 18 -12 12 6 19 4 22 -5 4 -10 0 -12 -15 -8 -15 3 -19 1 -14
-7 4 -6 3 -10 -3 -9 -5 2 -17 -6 -26 -17 -16 -20 -16 -20 -6 1 6 12 7 25 3 29
-4 5 -1 5 5 1 9 -5 11 -2 6 9 -3 9 -9 12 -12 7 -3 -5 -19 -8 -35 -6 -27 3 -27
2 -10 -12 18 -14 18 -15 -6 -10 -14 3 -19 3 -12 0 6 -3 9 -10 6 -15 -3 -6 -12
-5 -22 3 -10 7 -14 8 -9 3 4 -4 -1 -17 -10 -28 -10 -11 -12 -17 -5 -13 6 4 12
3 12 -3 0 -5 8 -12 18 -14 9 -3 4 -4 -11 -3 -16 1 -33 9 -38 17 -8 11 -9 10
-7 -5 2 -10 -3 -21 -11 -24 -10 -3 -11 0 -5 9 7 12 5 12 -9 0 -16 -13 -14 -37
2 -27 4 3 8 0 8 -7 0 -7 -12 -13 -25 -14 -18 -1 -21 1 -11 8 11 7 11 9 1 9 -7
0 -10 5 -6 12 4 6 3 8 -4 5 -11 -8 -11 -25 1 -44 5 -7 0 -16 -12 -22 -14 -8
-21 -8 -25 2 -4 8 -5 7 -5 -3 2 -30 -1 -41 -10 -35 -5 3 -13 0 -17 -6 -4 -8
-3 -9 5 -5 6 4 14 0 17 -8 3 -9 11 -13 18 -9 6 3 6 1 -1 -8 -16 -16 -17 -33
-1 -23 7 4 8 3 4 -5 -6 -9 -11 -9 -23 0 -12 11 -14 10 -11 -6 1 -11 -1 -20 -7
-20 -20 -1 -36 -17 -33 -35 2 -11 0 -19 -4 -20 -23 -1 -28 1 -28 11 0 5 6 7
13 3 6 -4 9 -4 5 1 -4 4 -3 14 3 22 9 10 8 13 0 13 -7 0 -10 4 -7 9 7 11 -20
8 -31 -3 -4 -4 -1 -6 7 -4 8 2 15 -4 15 -12 0 -8 -6 -14 -13 -12 -10 2 -10 -2
0 -20 14 -25 19 -138 6 -138 -4 0 -8 -14 -8 -31 0 -16 -4 -28 -9 -25 -5 3 -14
-1 -21 -9 -9 -10 -9 -15 -1 -15 6 0 11 5 11 11 0 5 4 8 9 5 5 -3 7 -15 4 -25
-3 -10 0 -21 5 -25 5 -3 8 7 7 24 -1 17 2 33 8 37 5 3 7 1 3 -5 -3 -6 -2 -14
4 -17 8 -5 7 -11 -1 -21 -6 -8 -8 -14 -4 -14 4 0 2 -6 -4 -14 -9 -11 -9 -15 1
-19 19 -8 -12 -28 -32 -22 -13 5 -13 4 0 -8 27 -22 22 -51 -6 -29 -5 4 -2 0 8
-9 16 -15 16 -17 0 -35 -15 -16 -15 -16 6 1 19 16 25 17 32 5 5 -8 6 -18 4
-22 -3 -4 0 -8 5 -8 6 0 11 -5 11 -11 0 -8 -4 -8 -13 0 -10 8 -19 7 -33 -5
-19 -15 -19 -15 1 -6 16 7 26 4 45 -16 14 -13 19 -22 13 -18 -7 4 -13 2 -13
-3 0 -6 6 -11 13 -11 17 0 48 -68 34 -77 -6 -3 -7 -1 -3 5 3 6 1 14 -6 19 -7
4 -13 15 -13 23 0 8 -6 14 -12 13 -12 -3 -15 1 -17 30 -2 22 -36 38 -36 16 0
-5 5 -7 10 -4 14 8 13 -28 -1 -42 -8 -8 -8 -13 0 -18 6 -3 10 -3 9 2 -2 4 2 9
7 10 6 1 10 -6 9 -17 0 -10 3 -17 7 -14 11 6 40 -7 34 -16 -3 -5 -1 -11 4 -15
6 -3 8 -12 4 -20 -3 -8 0 -15 6 -15 6 0 10 6 8 13 -1 6 5 12 13 12 8 0 22 5
30 10 12 7 13 6 5 -6 -6 -8 -10 -21 -9 -29 1 -8 2 -22 3 -30 1 -13 2 -13 12 0
9 13 10 13 6 0 -2 -8 -11 -14 -21 -12 -9 2 -16 -1 -16 -7 0 -5 13 -8 29 -6 22
3 29 0 25 -10 -7 -17 12 -29 22 -14 4 8 3 9 -4 5 -8 -5 -10 -1 -5 9 4 13 8 14
13 4 5 -7 5 -19 2 -28 -5 -14 -3 -14 11 -3 14 12 19 12 32 -2 9 -9 22 -16 28
-16 7 0 6 -4 -3 -10 -11 -7 -20 -3 -33 13 -16 18 -18 19 -13 3 5 -14 3 -17
-11 -12 -14 6 -15 5 -6 -5 7 -7 23 -13 36 -13 23 -2 69 -36 47 -36 -6 0 -13 6
-16 14 -3 8 -13 12 -25 9 -30 -8 -32 -21 -2 -15 20 4 24 2 18 -9 -5 -8 -5 -11
0 -7 4 4 17 3 28 -3 14 -8 18 -8 13 0 -4 6 -1 11 6 11 9 1 7 5 -5 14 -16 12
-16 14 -2 20 9 3 14 2 11 -2 -5 -9 22 -37 39 -39 5 -1 11 -7 13 -15 2 -9 0 -8
-7 2 -7 10 -11 11 -11 3 0 -7 -1 -16 -2 -20 -2 -3 6 -7 18 -8 16 -1 20 3 16
21 -2 12 1 25 7 28 7 5 10 -1 8 -15 -1 -12 4 -24 13 -26 13 -4 13 -3 0 7 -12
9 -10 10 9 5 17 -5 22 -4 16 5 -6 9 -4 11 4 6 9 -6 8 -12 -4 -26 -13 -14 -14
-20 -3 -26 7 -4 10 -4 6 1 -5 5 1 15 13 23 12 8 18 21 15 31 -5 14 -4 14 7 -1
8 -10 17 -15 20 -12 11 11 29 -37 18 -49 -5 -7 -6 -19 -2 -26 6 -10 10 -8 16
6 5 10 7 25 6 33 -1 8 6 3 17 -13 10 -15 22 -24 25 -20 4 3 7 1 7 -5 0 -7 5
-12 10 -12 6 0 5 8 -2 19 -7 11 -16 19 -21 18 -5 -1 -11 6 -12 16 -2 11 -1 16
2 13 4 -3 13 0 22 7 14 10 14 10 4 -4 -7 -9 -10 -19 -6 -23 4 -4 13 4 21 16
10 17 12 18 7 4 -3 -11 0 -24 7 -29 9 -6 8 -7 -5 -3 -11 3 -16 2 -12 -5 4 -5
16 -7 28 -3 19 6 20 5 8 -10 -9 -10 -10 -16 -2 -16 6 0 11 5 11 11 0 7 9 9 21
6 24 -7 19 1 -13 17 -12 6 -23 18 -26 26 -3 9 2 8 13 -5 14 -17 16 -17 11 -2
-3 9 -1 17 4 17 6 0 10 -7 10 -15 0 -8 5 -15 10 -15 6 0 10 6 10 14 0 19 25
27 39 13 9 -9 13 -6 18 12 4 17 8 19 14 9 12 -17 11 -31 0 -23 -5 3 -12 1 -16
-4 -3 -5 -14 -8 -24 -6 -22 4 -36 -21 -19 -31 6 -4 8 -3 4 4 -9 15 15 21 37
10 10 -5 21 -7 25 -4 3 3 0 6 -6 6 -7 0 -12 4 -12 9 0 10 26 9 36 -2 11 -10
24 -8 24 4 0 5 -4 8 -9 4 -5 -3 -12 -1 -16 5 -3 5 0 10 7 10 8 1 6 6 -6 15
-11 8 -16 15 -11 15 5 0 17 -8 28 -17 11 -10 17 -13 14 -7 -9 15 20 27 29 13
3 -6 12 -8 20 -5 9 3 20 -7 30 -26 13 -25 14 -32 2 -39 -7 -5 -9 -9 -4 -9 5 0
5 -6 0 -13 -5 -7 -1 -4 9 7 10 11 15 26 11 35 -3 9 -7 22 -7 29 0 6 -4 12 -9
12 -5 0 -6 5 -2 11 4 8 9 7 15 -2 4 -7 5 -17 3 -21 -3 -4 0 -8 5 -8 6 0 10 -6
8 -13 -1 -6 4 -11 11 -10 6 2 12 -2 12 -7 0 -6 -6 -10 -14 -10 -17 0 -15 -22
4 -46 9 -11 10 -15 3 -10 -7 4 -13 2 -13 -3 0 -6 -5 -11 -11 -11 -8 0 -8 4 0
14 8 10 9 16 1 21 -5 3 -10 -1 -10 -10 0 -10 -5 -13 -12 -9 -9 5 -9 2 1 -9 7
-9 10 -17 5 -17 -5 0 0 -7 10 -15 14 -11 16 -15 5 -15 -12 0 -12 -2 1 -10 9
-6 11 -10 3 -10 -7 0 -10 -7 -7 -17 5 -14 4 -15 -4 -4 -6 8 -9 23 -7 33 2 10
0 18 -5 18 -5 0 -8 -14 -6 -30 2 -17 -1 -30 -5 -30 -9 0 -13 15 -10 33 1 5 -3
6 -9 2 -6 -3 -8 -11 -5 -16 10 -15 -5 -31 -19 -20 -8 7 -12 4 -13 -10 -1 -10
3 -19 8 -19 6 0 7 6 3 13 -4 6 -3 8 1 4 12 -11 15 -38 4 -31 -5 3 -7 -5 -5
-18 2 -13 9 -22 16 -20 6 1 8 -2 5 -8 -10 -16 -45 18 -38 36 3 8 1 14 -4 14
-13 0 -13 -32 -1 -47 7 -9 4 -11 -11 -8 -12 2 -21 0 -21 -6 0 -5 -5 -9 -11 -9
-8 0 -8 5 1 15 7 8 17 12 23 8 6 -3 7 -1 3 6 -4 6 -11 9 -16 6 -4 -3 -11 1
-14 7 -3 7 -4 4 -3 -6 1 -10 -4 -21 -12 -24 -9 -3 -11 0 -6 8 5 9 4 11 -4 6
-6 -4 -9 -12 -6 -17 4 -5 2 -9 -4 -9 -5 0 -13 5 -16 10 -4 6 -11 8 -16 4 -5
-3 -7 -10 -4 -15 4 -5 1 -9 -4 -9 -10 0 -15 14 -12 33 1 5 -3 6 -8 2 -6 -3 -8
-12 -4 -20 4 -11 1 -13 -12 -8 -12 4 -23 0 -31 -12 -10 -14 -14 -15 -14 -4 -1
10 -3 10 -11 -3 -5 -10 -17 -15 -27 -12 -13 5 -14 4 -4 -4 17 -11 15 -22 -5
-44 -9 -11 -11 -18 -5 -18 13 0 34 35 26 43 -3 3 -1 8 5 12 6 3 11 -2 11 -13
0 -23 -35 -57 -49 -48 -5 4 -17 -4 -26 -16 -8 -13 -19 -21 -23 -20 -4 2 -15 8
-24 13 -14 8 -16 6 -11 -7 5 -13 3 -15 -7 -9 -7 5 -5 -3 6 -17 10 -14 23 -23
28 -20 5 3 6 0 2 -7 -6 -9 -12 -9 -25 3 -27 25 -34 19 -8 -7 12 -12 26 -21 30
-19 5 1 6 -2 2 -8 -3 -6 -10 -8 -15 -5 -5 3 -11 1 -15 -4 -3 -5 2 -14 11 -19
15 -8 15 -10 0 -15 -9 -4 -16 -11 -16 -17 0 -6 5 -8 11 -4 8 5 8 1 0 -14 -6
-11 -11 -23 -11 -26 0 -2 84 -5 186 -6 141 0 184 2 178 11 -5 9 -3 9 7 3 17
-11 89 -14 89 -3 0 4 7 9 15 11 10 2 7 7 -10 15 -16 7 -23 7 -18 1 4 -7 1 -8
-6 -4 -7 5 -18 1 -25 -9 -11 -16 -13 -16 -13 -1 0 8 9 18 19 22 10 3 15 10 12
16 -4 6 1 6 14 -1 14 -7 23 -8 27 -1 4 6 12 7 18 3 8 -5 8 -2 -1 9 -10 12 -9
18 3 28 8 7 13 16 10 20 -3 4 2 11 10 14 12 4 13 2 5 -13 -10 -20 3 -32 27
-24 10 4 10 10 1 26 l-11 22 23 -20 23 -20 -12 23 c-6 12 -8 22 -4 22 4 0 1 5
-7 11 -13 9 -13 10 2 6 23 -8 30 3 15 22 -11 14 -10 15 7 1 18 -14 19 -13 13
2 -4 12 -2 15 9 11 12 -4 12 -8 2 -22 -7 -9 -19 -21 -27 -27 -11 -9 -12 -12
-1 -19 7 -5 11 -4 8 1 -4 8 37 54 47 53 3 0 9 1 13 4 4 2 2 3 -3 2 -6 -2 -16
3 -22 11 -11 11 -8 12 17 9 16 -2 35 -6 42 -10 7 -4 5 0 -4 8 -19 15 -24 28
-10 26 19 -3 29 2 29 16 0 8 -5 11 -10 8 -5 -3 -7 0 -5 8 3 8 11 13 17 12 6
-2 10 3 8 10 -1 6 3 11 9 10 6 -1 11 4 11 12 0 8 -9 12 -24 9 -15 -3 -22 -1
-18 6 3 5 15 10 26 10 10 0 19 4 19 10 0 5 -6 7 -14 4 -8 -3 -17 -1 -21 5 -4
7 0 8 10 5 10 -4 15 -2 13 7 -2 8 3 13 10 12 6 -2 12 2 12 7 0 6 -4 10 -10 10
-5 0 -10 5 -10 10 0 6 7 6 18 -1 10 -7 19 -18 19 -25 0 -7 -5 -10 -10 -7 -6 4
-7 1 -2 -7 6 -9 4 -11 -4 -5 -10 6 -11 3 -2 -12 6 -11 7 -23 4 -27 -3 -3 -1
-6 5 -6 7 0 11 10 9 21 -1 12 4 24 11 26 7 3 10 -1 6 -11 -3 -9 -2 -16 3 -16
5 0 9 11 9 24 0 14 -4 22 -8 20 -4 -3 -8 0 -8 5 0 6 4 11 8 11 5 0 9 20 11 45
2 39 0 44 -16 39 -16 -5 -16 -4 -2 5 14 9 17 30 18 118 0 70 -4 112 -12 122
-9 11 -9 13 0 8 9 -6 12 31 12 153 0 122 -3 159 -12 154 -8 -5 -8 -3 1 7 6 7
12 34 12 59 0 25 -6 52 -12 59 -9 10 -9 12 -1 7 9 -5 12 32 12 154 0 122 -3
159 -12 154 -8 -5 -8 -3 1 7 6 7 12 34 12 59 0 25 -6 52 -12 59 -10 11 -10 12
-1 7 10 -5 12 15 12 84 0 62 -4 90 -12 90 -7 0 -6 4 3 10 12 7 12 12 2 22 -15
15 -16 32 0 22 7 -5 8 -3 3 6 -7 11 -12 9 -23 -8 -17 -26 -34 -29 -25 -4 4 11
-1 9 -16 -8 -12 -14 -20 -20 -17 -14 3 7 -2 18 -12 25 -15 13 -16 12 -3 -3 18
-24 4 -23 -39 3 -19 12 -29 15 -22 7 6 -8 8 -19 4 -23 -4 -5 -1 -5 5 -1 7 4
23 0 34 -8 22 -15 22 -15 1 -13 -11 0 -18 5 -15 10 3 5 0 8 -8 5 -8 -3 -14
-10 -14 -16 0 -5 -4 -14 -8 -19 -5 -4 -7 -1 -5 7 2 9 -3 14 -11 12 -12 -3 -12
-1 0 14 11 13 11 18 1 21 -6 3 -10 9 -7 14 4 5 -1 6 -9 3 -9 -3 -16 -10 -16
-16 0 -5 5 -6 10 -3 6 3 10 1 10 -4 0 -10 -22 -16 -44 -12 -5 1 -6 -5 -3 -14
9 -22 -1 -18 -14 6 -9 17 -8 20 2 14 8 -5 10 -4 5 3 -4 7 -3 12 3 12 5 0 11
-6 14 -12 3 -7 5 -4 4 8 -1 23 -23 28 -31 7 -3 -7 -10 -13 -16 -13 -6 0 -9 4
-6 8 2 4 -5 8 -17 9 -12 0 -16 -1 -9 -4 6 -3 9 -9 6 -14 -3 -6 -11 -5 -20 2
-11 9 -14 8 -14 -2 0 -11 -2 -11 -10 1 -9 13 -10 13 -10 0 0 -13 -1 -13 -10 0
-8 12 -10 11 -7 -5 1 -11 6 -25 10 -31 4 -7 0 -17 -7 -23 -10 -8 -16 -9 -21
-1 -3 6 -11 7 -17 4 -6 -4 -8 -2 -4 4 3 6 1 14 -5 17 -5 4 -8 13 -5 21 3 7 0
16 -6 20 -7 4 -8 3 -4 -4 4 -7 1 -12 -8 -12 -9 0 -16 4 -16 9 0 5 -11 9 -25 9
-14 0 -25 -4 -25 -9 0 -4 9 -6 20 -4 13 3 18 0 14 -7 -5 -7 -2 -8 6 -3 9 5 11
4 6 -3 -4 -8 -2 -10 7 -6 8 3 17 -2 21 -12 5 -14 4 -15 -9 -4 -12 10 -15 10
-15 -1 0 -7 -7 -3 -16 10 -13 18 -18 20 -25 10 -7 -11 -9 -11 -9 1 0 13 -1 13
-11 0 -8 -12 -9 -10 -4 8 4 13 2 22 -4 22 -6 0 -11 -7 -11 -15 0 -8 -4 -15 -9
-15 -5 0 -8 6 -7 14 0 8 -1 14 -4 13 -3 -1 -19 8 -35 20 -27 19 -31 19 -31 4
0 -9 8 -18 18 -19 48 -5 48 -5 36 -20 -10 -12 -14 -11 -25 4 -7 10 -16 15 -19
11 -4 -4 -1 -14 7 -23 13 -16 12 -16 -8 -4 -12 8 -19 18 -17 22 3 4 1 8 -4 8
-5 0 -8 11 -7 25 2 14 -1 27 -5 30 -5 3 -7 -6 -4 -21z m-9 -27 c13 -14 11 -36
-3 -30 -8 3 -14 10 -14 15 0 6 -7 5 -15 -2 -20 -16 -32 -5 -16 14 12 14 35 16
48 3z m383 -32 c10 -12 8 -13 -10 -10 -17 3 -21 0 -16 -13 6 -16 5 -16 -8 1
-7 9 -16 17 -20 17 -3 0 -6 -8 -6 -17 0 -15 -2 -16 -10 -3 -15 23 -12 28 15
25 14 -1 28 2 31 6 7 12 10 11 24 -6z m255 5 c3 -5 -1 -10 -10 -10 -9 0 -13 5
-10 10 3 6 8 10 10 10 2 0 7 -4 10 -10z m-15 -31 c0 -3 -7 -6 -15 -6 -8 0 -12
4 -9 9 3 4 0 8 -5 8 -6 0 -11 5 -11 10 0 6 8 5 20 -2 11 -7 20 -15 20 -19z
m-913 -27 c-8 -9 -13 -25 -12 -35 2 -11 0 -16 -3 -12 -4 4 -7 12 -7 18 0 7
-11 11 -24 9 -15 -2 -21 0 -16 7 3 6 10 9 15 6 5 -3 11 -1 15 5 4 6 10 8 15 5
5 -3 12 5 16 17 4 14 9 18 12 10 2 -7 -3 -21 -11 -30z m163 32 c0 -8 -19 -13
-24 -6 -3 5 1 9 9 9 8 0 15 -2 15 -3z m705 -3 c3 -5 2 -12 -3 -15 -5 -3 -9 1
-9 9 0 17 3 19 12 6z m-955 -91 c0 -5 -5 -10 -11 -10 -5 0 -7 5 -4 10 3 6 8
10 11 10 2 0 4 -4 4 -10z m-83 -91 c-15 -9 -16 -13 -5 -27 11 -15 11 -15 -3
-5 -9 7 -19 9 -24 5 -4 -4 -1 3 6 16 8 12 21 22 29 22 12 -1 11 -3 -3 -11z
m403 -35 c0 -8 -19 -13 -24 -6 -3 5 1 9 9 9 8 0 15 -2 15 -3z m41 -13 c-10
-18 -6 -31 10 -31 5 0 6 8 2 18 -5 14 -3 13 10 -3 10 -13 12 -22 5 -26 -6 -4
-6 -9 -2 -11 5 -3 19 5 32 18 12 13 19 24 13 24 -5 0 -11 7 -15 15 -7 19 -1
19 18 -1 13 -12 14 -20 5 -36 -8 -15 -8 -19 0 -14 10 6 15 -6 12 -26 0 -4 6
-5 14 -2 8 4 15 14 15 24 0 11 5 22 11 26 7 4 9 0 5 -13 -9 -28 17 -47 67 -52
5 -1 5 -6 1 -13 -5 -7 -3 -8 6 -3 10 6 12 4 7 -9 -5 -11 -3 -15 5 -10 8 5 9 2
5 -9 -3 -9 -1 -19 5 -23 7 -5 8 -2 3 6 -6 10 -4 12 8 7 9 -3 19 -1 23 5 5 7 2
8 -6 3 -9 -6 -11 -4 -5 5 6 9 4 11 -5 5 -9 -6 -11 -4 -5 5 6 9 4 11 -5 5 -8
-5 -11 -4 -7 2 4 6 0 13 -8 17 -9 3 -12 12 -8 22 5 15 7 14 16 -2 6 -11 23
-32 40 -48 23 -22 26 -31 17 -40 -10 -8 -11 -8 -5 2 6 11 3 12 -14 3 -28 -16
-27 -18 9 -16 18 1 34 -4 39 -13 9 -17 3 -54 -8 -47 -4 2 -8 -2 -8 -9 0 -7 6
-13 13 -13 7 0 11 4 8 9 -3 4 0 8 5 8 6 0 11 -5 11 -11 0 -5 5 -7 12 -3 7 4 8
3 4 -5 -4 -6 -12 -9 -17 -6 -5 4 -9 1 -9 -5 0 -6 -4 -8 -10 -5 -6 3 -7 -1 -3
-10 4 -12 8 -13 13 -5 5 8 9 7 13 -5 4 -9 3 -13 -3 -10 -6 3 -10 2 -10 -4 0
-6 -8 -8 -17 -4 -10 3 -15 3 -11 -1 6 -7 27 -13 53 -15 6 -1 4 -5 -4 -10 -10
-7 -11 -13 -1 -32 11 -23 10 -23 -4 -5 -9 11 -16 23 -16 28 0 4 -8 8 -17 8
-17 -1 -17 -1 0 -11 19 -11 24 -34 5 -24 -7 4 -5 0 5 -8 9 -8 17 -20 16 -28 0
-10 -2 -11 -6 -1 -2 6 -9 12 -14 12 -6 0 -6 -7 0 -18 5 -10 6 -24 1 -32 -5 -8
-4 -22 2 -33 7 -13 7 -17 0 -13 -6 4 -15 -1 -20 -10 -11 -20 -34 -10 -25 11 3
8 1 15 -5 15 -6 0 -9 -11 -8 -24 2 -14 -1 -30 -5 -38 -6 -9 -9 -10 -9 -1 0 7
-9 17 -19 23 -16 8 -19 7 -16 -8 2 -9 4 -20 4 -24 1 -3 9 -9 19 -12 10 -3 6
-4 -8 -3 -18 1 -25 -3 -24 -14 1 -9 -6 -16 -15 -15 -9 0 -15 -5 -13 -11 3 -16
-15 -17 -20 -1 -2 6 -10 8 -17 4 -9 -6 -8 -11 6 -23 17 -13 17 -14 -3 -4 -11
5 -26 6 -34 1 -8 -5 -17 -7 -21 -4 -4 2 -10 -3 -13 -12 -3 -8 -10 -12 -16 -9
-5 3 -10 0 -10 -7 -1 -7 -6 -4 -13 7 -7 11 -23 21 -36 23 -19 2 -22 0 -12 -12
9 -11 9 -16 -1 -22 -7 -4 -10 -4 -6 1 11 12 -11 35 -28 28 -8 -3 -14 0 -14 7
0 6 -5 8 -12 4 -14 -9 -3 12 26 46 14 18 15 20 2 9 -17 -16 -19 -16 -37 2 -10
10 -25 16 -34 13 -24 -10 -17 -23 10 -18 14 2 25 0 25 -6 0 -6 -4 -9 -9 -5 -5
3 -13 1 -16 -5 -5 -8 -11 -7 -21 1 -17 14 -18 39 -1 39 6 0 -5 11 -26 24 -54
33 -73 62 -56 84 7 9 9 14 5 10 -5 -4 -15 -3 -22 3 -10 8 -12 6 -9 -10 2 -12
-1 -21 -7 -21 -5 0 -8 7 -4 15 3 10 -1 15 -12 16 -16 1 -16 2 1 6 21 6 22 29
2 37 -13 4 -14 10 -5 26 10 18 7 24 -12 21 -5 0 -8 3 -8 9 0 10 12 13 28 8 4
-2 6 -11 6 -20 -1 -17 15 -27 17 -10 0 4 2 15 4 25 2 9 0 15 -5 12 -4 -3 -10
2 -14 10 -3 8 -12 12 -21 9 -8 -3 -15 -1 -15 6 0 6 5 8 10 5 6 -3 10 -1 10 4
0 6 5 11 11 11 5 0 7 -5 3 -12 -4 -6 -3 -8 4 -4 5 3 12 0 15 -6 2 -7 4 1 3 19
0 17 -3 30 -5 27 -2 -2 -9 6 -16 19 -8 15 -8 24 -1 30 8 6 7 10 -2 14 -8 3 -5
11 12 24 13 10 28 19 33 19 4 0 1 -5 -7 -11 -13 -9 -13 -10 0 -6 8 2 14 13 12
24 -4 30 21 47 49 33 18 -10 24 -9 31 4 5 9 13 14 18 11 5 -3 11 -1 15 4 3 6
-4 8 -15 6 -12 -2 -18 0 -14 6 3 6 16 9 27 7 12 -1 28 2 36 6 11 7 13 5 8 -6
-6 -17 16 -19 30 -3 4 4 3 5 -3 2 -7 -4 -15 0 -18 9 -5 13 -9 14 -21 4 -11 -9
-15 -9 -15 -1 0 7 -4 10 -9 6 -5 -3 -12 -1 -16 4 -3 6 6 8 21 5 14 -3 23 -1
20 5 -7 11 20 35 33 27 5 -3 11 1 15 9 3 8 8 15 11 15 3 0 1 -8 -4 -19z m55
-18 c-7 -7 -21 -4 -21 5 0 4 -4 14 -9 22 -6 9 -1 7 12 -4 12 -11 20 -21 18
-23z m-132 9 c3 -5 -1 -9 -9 -9 -8 0 -12 4 -9 9 3 4 7 8 9 8 2 0 6 -4 9 -8z
m199 -7 c-14 -10 -20 -22 -17 -33 5 -14 4 -15 -5 -2 -11 15 12 50 33 50 6 0 1
-7 -11 -15z m52 -25 c-3 -6 1 -13 9 -16 20 -8 21 -21 1 -21 -8 0 -11 5 -8 10
4 6 0 8 -10 4 -23 -9 -31 10 -10 22 23 13 26 13 18 1z m-295 -15 c-6 -8 -9
-19 -6 -24 4 -5 2 -12 -3 -15 -17 -11 -20 10 -5 32 8 12 18 22 21 22 3 0 0 -7
-7 -15z m-35 -15 c-3 -5 -12 -10 -18 -10 -7 0 -6 4 3 10 19 12 23 12 15 0z
m-75 -60 c0 -5 -5 -10 -11 -10 -5 0 -7 5 -4 10 3 6 8 10 11 10 2 0 4 -4 4 -10z
m-35 -89 c3 -5 2 -12 -3 -15 -5 -3 -9 1 -9 9 0 17 3 19 12 6z m25 -36 c11 -13
10 -14 -4 -9 -9 3 -16 10 -16 15 0 13 6 11 20 -6z m-300 -155 c0 -5 -5 -10
-11 -10 -5 0 -7 5 -4 10 3 6 8 10 11 10 2 0 4 -4 4 -10z m-13 -26 c-3 -3 -12
-4 -19 -1 -8 3 -5 6 6 6 11 1 17 -2 13 -5z m1190 -9 c0 -8 -4 -12 -9 -9 -5 3
-6 10 -3 15 9 13 12 11 12 -6z m-850 -40 c3 -9 21 -27 40 -39 22 -15 30 -26
23 -31 -6 -4 -14 -4 -17 -1 -3 3 -13 0 -22 -7 -14 -10 -14 -10 -4 4 11 13 9
18 -12 29 -16 9 -24 19 -20 29 3 8 0 18 -7 23 -11 6 -11 8 0 8 7 0 15 -7 19
-15z m-270 -100 c0 -8 -4 -12 -9 -9 -5 3 -6 10 -3 15 9 13 12 11 12 -6z m401
-25 c-7 -11 -15 -15 -17 -9 -2 6 3 15 10 20 20 12 21 11 7 -11z m-373 -40 c3
-5 1 -10 -4 -10 -6 0 -11 5 -11 10 0 6 2 10 4 10 3 0 8 -4 11 -10z m389 -6 c3
-8 2 -12 -4 -9 -6 3 -10 10 -10 16 0 14 7 11 14 -7z m296 -218 c-7 -7 -13 -7
-20 0 -6 6 -3 10 10 10 13 0 16 -4 10 -10z m57 5 c9 8 13 8 13 0 0 -6 -2 -11
-4 -11 -2 0 -11 -3 -19 -6 -8 -3 -17 2 -21 13 -6 14 -5 15 5 6 9 -9 16 -10 26
-2z m-187 -21 c0 -5 -5 -10 -11 -10 -5 0 -7 5 -4 10 3 6 8 10 11 10 2 0 4 -4
4 -10z m-140 -10 c0 -5 -5 -10 -11 -10 -5 0 -7 5 -4 10 3 6 8 10 11 10 2 0 4
-4 4 -10z m680 -134 c0 -2 -8 -10 -17 -17 -16 -13 -17 -12 -4 4 13 16 21 21
21 13z m-35 -76 c-3 -5 -12 -10 -18 -10 -7 0 -6 4 3 10 19 12 23 12 15 0z
m-309 -35 c1 -8 -1 -15 -6 -15 -10 0 -20 26 -13 34 8 8 16 -1 19 -19z m350 7
c1 -7 0 -8 -3 -2 -2 5 -9 8 -14 4 -5 -3 -9 0 -9 6 0 15 23 7 26 -8z m-66 -32
c0 -5 -2 -10 -4 -10 -3 0 -8 5 -11 10 -3 6 -1 10 4 10 6 0 11 -4 11 -10z
m-418 -65 c7 4 5 0 -4 -8 -10 -8 -15 -17 -11 -21 4 -4 0 -4 -9 -1 -9 4 -16 15
-15 25 1 14 4 16 14 9 7 -6 18 -8 25 -4z m-62 -18 c0 -4 0 -13 0 -19 0 -8 -3
-9 -8 -3 -4 6 -16 11 -27 13 -19 3 -18 1 3 -15 21 -18 22 -19 3 -19 -11 0 -19
3 -19 6 1 18 -3 23 -11 12 -7 -11 -9 -10 -14 3 -4 9 -3 14 3 10 6 -3 13 1 16
10 6 15 55 17 54 2z m476 -2 c-11 -8 -25 -15 -30 -15 -6 1 0 7 14 15 32 19 40
18 16 0z m-16 -57 c0 -5 -4 -7 -9 -3 -6 3 -14 -3 -20 -12 -9 -16 -10 -16 -8 4
0 12 5 19 11 16 5 -4 7 1 2 12 -5 15 -4 16 9 5 8 -7 15 -17 15 -22z m-529 -11
c-10 -9 -11 -8 -5 6 3 10 9 15 12 12 3 -3 0 -11 -7 -18z m-64 -42 c0 -8 -4
-12 -9 -9 -5 3 -6 10 -3 15 9 13 12 11 12 -6z m-41 -18 c8 3 14 1 14 -5 0 -6
-8 -9 -17 -7 -10 2 -22 4 -26 4 -5 1 -5 6 -1 13 6 9 9 9 11 1 3 -7 11 -9 19
-6z m430 -59 c-1 -7 -5 -19 -9 -25 -5 -8 -3 -13 3 -13 6 0 8 -5 5 -10 -4 -6
-12 -5 -21 4 -17 18 -18 27 -2 24 7 -2 13 3 14 10 2 19 4 22 8 22 2 0 3 -6 2
-12z m-21 -97 c-9 -8 -36 -10 -30 -2 2 4 11 8 20 8 8 0 13 -3 10 -6z"/>
<path d="M1886 1592 c-3 -6 10 -19 28 -30 25 -15 33 -17 29 -6 -3 8 -11 14
-19 14 -8 0 -13 5 -11 11 3 15 -19 23 -27 11z"/>
<path d="M1976 1543 c-6 -14 -5 -15 5 -6 7 7 10 15 7 18 -3 3 -9 -2 -12 -12z"/>
<path d="M2050 1518 c0 -6 3 -8 7 -5 3 4 13 1 22 -6 14 -11 14 -10 2 6 -15 20
-31 22 -31 5z"/>
<path d="M1746 1494 c-5 -14 -4 -15 9 -4 17 14 19 20 6 20 -5 0 -12 -7 -15
-16z"/>
<path d="M1770 1479 c0 -5 5 -7 10 -4 6 3 10 8 10 11 0 2 -4 4 -10 4 -5 0 -10
-5 -10 -11z"/>
<path d="M1699 1449 c-6 -39 -6 -60 1 -64 5 -3 11 -1 15 5 4 6 12 7 18 3 7 -3
4 2 -5 13 -9 10 -17 23 -16 27 0 9 -11 23 -13 16z m21 -43 c0 -3 -4 -8 -10
-11 -5 -3 -10 -1 -10 4 0 6 5 11 10 11 6 0 10 -2 10 -4z"/>
<path d="M1736 1433 c-6 -14 -5 -15 5 -6 7 7 10 15 7 18 -3 3 -9 -2 -12 -12z"/>
<path d="M2195 1411 c-3 -5 0 -13 6 -17 7 -4 9 -3 5 4 -3 5 0 13 6 15 9 4 10
6 1 6 -6 1 -14 -3 -18 -8z"/>
<path d="M2230 1399 c0 -5 5 -7 10 -4 6 3 10 8 10 11 0 2 -4 4 -10 4 -5 0 -10
-5 -10 -11z"/>
<path d="M1671 1237 c2 -2 11 -8 20 -15 12 -9 16 -9 16 1 0 7 -9 14 -20 14
-11 1 -18 1 -16 0z"/>
<path d="M1716 1202 c-3 -5 1 -9 9 -9 8 0 12 4 9 9 -3 4 -7 8 -9 8 -2 0 -6 -4
-9 -8z"/>
<path d="M2224 1191 c4 -5 0 -11 -6 -14 -7 -3 -3 -4 9 -4 17 1 19 4 11 14 -12
15 -22 18 -14 4z"/>
<path d="M2225 1152 c-5 -4 -10 -17 -11 -30 -1 -27 15 -15 21 16 4 24 4 25
-10 14z"/>
<path d="M2171 1114 c0 -11 3 -14 6 -6 3 7 2 16 -1 19 -3 4 -6 -2 -5 -13z"/>
<path d="M2122 1064 c3 -5 0 -15 -8 -22 -8 -7 -14 -8 -14 -2 0 11 -36 8 -47
-5 -5 -4 -2 -5 6 0 9 5 12 3 9 -6 -6 -18 -44 -18 -40 0 1 7 -2 9 -9 6 -8 -5
-8 -10 0 -18 15 -15 14 -32 -1 -20 -16 12 -49 13 -42 1 3 -4 1 -8 -5 -8 -6 0
-8 -7 -5 -15 6 -15 25 -16 36 -1 3 5 14 11 23 12 9 1 25 10 35 19 10 9 23 14
28 11 5 -3 19 5 31 18 17 18 19 26 10 31 -7 5 -10 4 -7 -1z m-117 -74 c-3 -5
-11 -10 -16 -10 -6 0 -7 5 -4 10 3 6 11 10 16 10 6 0 7 -4 4 -10z"/>
<path d="M1884 1009 c-8 -9 -12 -19 -7 -21 18 -9 67 -1 71 11 3 10 -1 12 -14
7 -30 -12 -32 -12 -33 -1 -1 6 3 10 8 10 5 0 12 3 15 6 3 3 -1 6 -9 6 -8 0
-22 -8 -31 -18z"/>
<path d="M1710 1106 c0 -2 8 -10 18 -17 15 -13 16 -12 3 4 -13 16 -21 21 -21
13z"/>
<path d="M2315 1931 c-3 -5 -2 -12 3 -15 5 -3 9 1 9 9 0 17 -3 19 -12 6z"/>
<path d="M666 1918 c3 -5 10 -6 15 -3 13 9 11 12 -6 12 -8 0 -12 -4 -9 -9z"/>
<path d="M2026 1918 c4 -5 12 -7 19 -4 8 3 16 1 19 -5 2 -5 3 -4 2 2 -1 7 -12
13 -24 14 -11 1 -19 -2 -16 -7z"/>
<path d="M470 1900 c-9 -6 -10 -10 -3 -10 6 0 15 5 18 10 8 12 4 12 -15 0z"/>
<path d="M606 1895 c4 -8 10 -12 15 -9 11 6 2 24 -11 24 -5 0 -7 -7 -4 -15z"/>
<path d="M736 1895 c-9 -26 -7 -32 5 -12 6 10 9 21 6 23 -2 3 -7 -2 -11 -11z"/>
<path d="M1754 1894 c1 -7 6 -17 11 -21 4 -4 5 -3 1 4 -3 6 -2 14 3 18 5 3 14
-2 19 -11 6 -10 12 -12 16 -6 3 5 -2 13 -12 17 -30 14 -40 13 -38 -1z"/>
<path d="M786 1882 c-3 -5 1 -9 9 -9 8 0 15 4 15 9 0 4 -4 8 -9 8 -6 0 -12 -4
-15 -8z"/>
<path d="M2196 1861 c-7 -10 28 -44 37 -35 7 7 -14 44 -25 44 -4 0 -9 -4 -12
-9z"/>
<path d="M967 1785 c12 -15 24 -22 36 -19 11 4 16 1 15 -7 -2 -7 6 -13 17 -14
11 0 20 -6 20 -12 0 -7 3 -13 8 -13 4 0 12 0 19 0 6 0 1 8 -10 19 -12 10 -19
20 -16 24 3 3 -3 4 -13 4 -10 -1 -17 4 -15 11 1 6 -2 12 -6 12 -4 0 -14 -6
-21 -12 -11 -11 -12 -9 -6 10 4 14 2 22 -5 22 -6 0 -8 -4 -5 -10 3 -5 1 -10
-4 -10 -6 0 -11 5 -11 10 0 6 -5 10 -10 10 -6 0 -3 -11 7 -25z"/>
<path d="M1467 1699 c7 -7 15 -10 18 -7 3 3 -2 9 -12 12 -14 6 -15 5 -6 -5z"/>
<path d="M1101 1691 c-7 -5 -9 -11 -5 -14 5 -3 15 1 22 9 14 16 5 18 -17 5z"/>
<path d="M1150 1650 c6 -11 13 -20 16 -20 2 0 0 9 -6 20 -6 11 -13 20 -16 20
-2 0 0 -9 6 -20z"/>
<path d="M1411 1603 c13 -15 -2 -18 -18 -2 -7 7 -12 6 -16 -5 -4 -10 -1 -13 8
-10 10 4 13 0 10 -16 -3 -17 -1 -19 9 -11 7 6 17 7 21 3 5 -4 5 -2 2 5 -10 16
3 44 17 36 6 -3 8 -2 3 2 -4 5 -16 9 -27 10 -15 1 -17 -1 -9 -12z"/>
<path d="M1235 1569 c-4 -6 -5 -12 -2 -15 2 -3 7 2 10 11 7 17 1 20 -8 4z"/>
<path d="M1160 1542 c0 -20 20 -23 42 -8 12 9 17 16 11 16 -7 0 -15 -5 -18
-10 -5 -8 -11 -7 -21 1 -9 7 -14 8 -14 1z"/>
<path d="M1213 1515 c0 -8 4 -15 9 -15 4 0 8 7 8 15 0 8 -4 15 -8 15 -5 0 -9
-7 -9 -15z"/>
<path d="M1330 1482 c0 -5 7 -9 15 -9 8 0 12 4 9 9 -3 4 -9 8 -15 8 -5 0 -9
-4 -9 -8z"/>
<path d="M1350 1449 c0 -5 -4 -8 -8 -5 -5 3 -9 -1 -9 -9 0 -8 4 -12 8 -9 4 2
9 -2 12 -8 2 -7 4 -1 4 15 0 15 -1 27 -3 27 -2 0 -4 -5 -4 -11z"/>
<path d="M1338 1399 c10 -13 10 -18 -1 -28 -8 -6 -18 -7 -22 -3 -5 4 -5 1 -1
-5 10 -18 19 -16 33 6 10 16 9 22 -5 33 -15 11 -16 11 -4 -3z"/>
<path d="M1316 1267 c3 -10 9 -15 12 -12 3 3 0 11 -7 18 -10 9 -11 8 -5 -6z"/>
<path d="M1334 1239 c-3 -6 -1 -16 4 -21 8 -8 11 -5 9 11 -1 24 -3 25 -13 10z"/>
<path d="M1345 1110 c-3 -6 1 -7 9 -4 18 7 21 14 7 14 -6 0 -13 -4 -16 -10z"/>
<path d="M1230 1049 c0 -5 5 -7 10 -4 6 3 10 8 10 11 0 2 -4 4 -10 4 -5 0 -10
-5 -10 -11z"/>
<path d="M1460 921 c0 -5 5 -13 10 -16 6 -3 10 -2 10 4 0 5 -4 13 -10 16 -5 3
-10 2 -10 -4z"/>
<path d="M1453 885 c0 -7 6 -11 14 -8 7 3 13 6 13 8 0 2 -6 5 -13 8 -8 3 -14
-1 -14 -8z"/>
<path d="M1085 861 c-3 -6 -14 -8 -25 -6 -13 2 -20 -2 -20 -11 0 -8 5 -14 10
-14 6 0 10 6 10 13 0 8 3 7 9 -3 6 -8 7 -18 4 -24 -3 -5 -1 -6 5 -2 6 4 8 14
5 24 -6 15 -5 16 13 2 17 -14 18 -13 7 1 -7 9 -10 19 -6 22 3 4 4 7 0 7 -3 0
-8 -4 -12 -9z"/>
<path d="M1475 820 c3 -5 8 -10 11 -10 2 0 4 5 4 10 0 6 -5 10 -11 10 -5 0 -7
-4 -4 -10z"/>
<path d="M1673 719 c-2 -23 3 -25 10 -4 4 8 3 16 -1 19 -4 3 -9 -4 -9 -15z"/>
<path d="M416 713 c-4 -9 -4 -18 -1 -21 3 -3 5 0 5 7 0 7 9 3 21 -10 11 -13
18 -18 14 -11 -3 6 -1 12 6 12 7 0 9 -8 6 -21 -4 -15 -3 -19 5 -11 11 11 1 55
-12 47 -5 -3 -15 1 -23 10 -13 13 -16 13 -21 -2z"/>
<path d="M79 716 c-1 -3 -2 -14 -3 -23 -1 -10 -5 -24 -9 -30 -13 -20 0 -15 23
9 16 17 20 18 20 6 0 -9 7 -19 16 -22 14 -5 15 -4 5 8 -7 8 -9 21 -5 27 4 7 3
9 -4 5 -6 -3 -18 1 -26 10 -9 8 -17 13 -17 10z"/>
<path d="M196 701 c-3 -5 1 -11 9 -15 8 -3 15 -1 15 4 0 13 -18 22 -24 11z"/>
<path d="M234 694 c3 -9 6 -18 6 -20 0 -2 5 -4 11 -4 8 0 9 4 0 13 -6 8 -8 17
-4 20 3 4 1 7 -6 7 -8 0 -11 -6 -7 -16z"/>
<path d="M1810 686 c-12 -19 -11 -20 3 -8 10 9 17 10 22 2 3 -5 1 -10 -6 -10
-7 0 -9 -3 -6 -6 10 -10 36 16 31 30 -7 19 -30 15 -44 -8z"/>
<path d="M2170 700 c0 -5 5 -10 11 -10 5 0 7 5 4 10 -3 6 -8 10 -11 10 -2 0
-4 -4 -4 -10z"/>
<path d="M500 675 c-7 -9 -10 -18 -7 -21 3 -3 10 4 17 15 13 25 8 27 -10 6z"/>
<path d="M10 665 c-11 -13 -10 -14 4 -9 9 3 16 10 16 15 0 13 -6 11 -20 -6z"/>
<path d="M310 659 c0 -5 5 -7 10 -4 6 3 10 8 10 11 0 2 -4 4 -10 4 -5 0 -10
-5 -10 -11z"/>
<path d="M2057 645 c-4 -8 -3 -16 1 -19 4 -3 9 4 9 15 2 23 -3 25 -10 4z"/>
<path d="M206 642 c-2 -4 4 -8 14 -8 10 0 16 4 14 8 -3 4 -9 8 -14 8 -5 0 -11
-4 -14 -8z"/>
<path d="M713 635 c0 -8 4 -12 9 -9 5 3 6 10 3 15 -9 13 -12 11 -12 -6z"/>
<path d="M535 620 c3 -5 8 -10 11 -10 2 0 4 5 4 10 0 6 -5 10 -11 10 -5 0 -7
-4 -4 -10z"/>
<path d="M675 620 c-3 -6 1 -7 9 -4 18 7 21 14 7 14 -6 0 -13 -4 -16 -10z"/>
<path d="M1995 620 c-3 -6 1 -7 9 -4 18 7 21 14 7 14 -6 0 -13 -4 -16 -10z"/>
<path d="M1896 319 c4 -8 -1 -9 -17 -4 -22 7 -23 6 -6 -7 18 -13 18 -15 1 -29
-16 -12 -17 -12 -11 4 3 9 2 17 -3 17 -6 0 -10 -6 -10 -14 0 -8 -5 -16 -12
-18 -9 -3 -9 -6 0 -12 7 -4 12 -2 12 4 0 6 4 9 9 5 5 -3 19 7 30 21 23 29 27
44 10 44 -5 0 -7 -5 -3 -11z"/>
<path d="M1797 179 c17 -22 3 -33 -14 -11 -12 15 -13 14 -2 -8 7 -14 17 -28
23 -32 8 -5 7 -8 -1 -8 -7 0 -13 -5 -13 -11 0 -8 5 -7 15 1 11 9 13 16 6 23
-7 7 -7 15 -1 22 7 9 5 17 -7 26 -16 12 -17 12 -6 -2z"/>
<path d="M2400 166 c0 -2 7 -7 16 -10 8 -3 12 -2 9 4 -6 10 -25 14 -25 6z"/>
<path d="M2310 141 c0 -5 7 -12 16 -15 14 -5 15 -4 4 9 -14 17 -20 19 -20 6z"/>
<path d="M2380 140 c-9 -6 -10 -10 -3 -10 6 0 15 5 18 10 8 12 4 12 -15 0z"/>
<path d="M1790 80 c0 -5 5 -10 10 -10 6 0 10 5 10 10 0 6 -4 10 -10 10 -5 0
-10 -4 -10 -10z"/>
</g>
</svg>
